G04 #@! TF.GenerationSoftware,KiCad,Pcbnew,(5.1.10-1-10_14)*
G04 #@! TF.CreationDate,2021-08-19T10:23:20-05:00*
G04 #@! TF.ProjectId,PCB-Keychains,5043422d-4b65-4796-9368-61696e732e6b,rev?*
G04 #@! TF.SameCoordinates,Original*
G04 #@! TF.FileFunction,Legend,Bot*
G04 #@! TF.FilePolarity,Positive*
%FSLAX46Y46*%
G04 Gerber Fmt 4.6, Leading zero omitted, Abs format (unit mm)*
G04 Created by KiCad (PCBNEW (5.1.10-1-10_14)) date 2021-08-19 10:23:20*
%MOMM*%
%LPD*%
G01*
G04 APERTURE LIST*
%ADD10C,0.300000*%
G04 APERTURE END LIST*
D10*
X151290955Y-103667547D02*
X151290955Y-102167547D01*
X150790955Y-103238976D01*
X150290955Y-102167547D01*
X150290955Y-103667547D01*
X149576669Y-103667547D02*
X149576669Y-102667547D01*
X149576669Y-102167547D02*
X149648098Y-102238976D01*
X149576669Y-102310404D01*
X149505241Y-102238976D01*
X149576669Y-102167547D01*
X149576669Y-102310404D01*
X148862384Y-102667547D02*
X148862384Y-103667547D01*
X148862384Y-102810404D02*
X148790955Y-102738976D01*
X148648098Y-102667547D01*
X148433812Y-102667547D01*
X148290955Y-102738976D01*
X148219526Y-102881833D01*
X148219526Y-103667547D01*
X147505241Y-102667547D02*
X147505241Y-103667547D01*
X147505241Y-102810404D02*
X147433812Y-102738976D01*
X147290955Y-102667547D01*
X147076669Y-102667547D01*
X146933812Y-102738976D01*
X146862384Y-102881833D01*
X146862384Y-103667547D01*
X145576669Y-103596118D02*
X145719526Y-103667547D01*
X146005241Y-103667547D01*
X146148098Y-103596118D01*
X146219526Y-103453261D01*
X146219526Y-102881833D01*
X146148098Y-102738976D01*
X146005241Y-102667547D01*
X145719526Y-102667547D01*
X145576669Y-102738976D01*
X145505241Y-102881833D01*
X145505241Y-103024690D01*
X146219526Y-103167547D01*
X144933812Y-103596118D02*
X144790955Y-103667547D01*
X144505241Y-103667547D01*
X144362384Y-103596118D01*
X144290955Y-103453261D01*
X144290955Y-103381833D01*
X144362384Y-103238976D01*
X144505241Y-103167547D01*
X144719526Y-103167547D01*
X144862384Y-103096118D01*
X144933812Y-102953261D01*
X144933812Y-102881833D01*
X144862384Y-102738976D01*
X144719526Y-102667547D01*
X144505241Y-102667547D01*
X144362384Y-102738976D01*
X143433812Y-103667547D02*
X143576669Y-103596118D01*
X143648098Y-103524690D01*
X143719526Y-103381833D01*
X143719526Y-102953261D01*
X143648098Y-102810404D01*
X143576669Y-102738976D01*
X143433812Y-102667547D01*
X143219526Y-102667547D01*
X143076669Y-102738976D01*
X143005241Y-102810404D01*
X142933812Y-102953261D01*
X142933812Y-103381833D01*
X143005241Y-103524690D01*
X143076669Y-103596118D01*
X143219526Y-103667547D01*
X143433812Y-103667547D01*
X142505241Y-102667547D02*
X141933812Y-102667547D01*
X142290955Y-102167547D02*
X142290955Y-103453261D01*
X142219526Y-103596118D01*
X142076669Y-103667547D01*
X141933812Y-103667547D01*
X140790955Y-103667547D02*
X140790955Y-102881833D01*
X140862384Y-102738976D01*
X141005241Y-102667547D01*
X141290955Y-102667547D01*
X141433812Y-102738976D01*
X140790955Y-103596118D02*
X140933812Y-103667547D01*
X141290955Y-103667547D01*
X141433812Y-103596118D01*
X141505241Y-103453261D01*
X141505241Y-103310404D01*
X141433812Y-103167547D01*
X141290955Y-103096118D01*
X140933812Y-103096118D01*
X140790955Y-103024690D01*
X138933812Y-103667547D02*
X138933812Y-102167547D01*
X138433812Y-103238976D01*
X137933812Y-102167547D01*
X137933812Y-103667547D01*
X136648098Y-103596118D02*
X136790955Y-103667547D01*
X137076669Y-103667547D01*
X137219526Y-103596118D01*
X137290955Y-103453261D01*
X137290955Y-102881833D01*
X137219526Y-102738976D01*
X137076669Y-102667547D01*
X136790955Y-102667547D01*
X136648098Y-102738976D01*
X136576669Y-102881833D01*
X136576669Y-103024690D01*
X137290955Y-103167547D01*
X135362384Y-103596118D02*
X135505241Y-103667547D01*
X135790955Y-103667547D01*
X135933812Y-103596118D01*
X136005241Y-103453261D01*
X136005241Y-102881833D01*
X135933812Y-102738976D01*
X135790955Y-102667547D01*
X135505241Y-102667547D01*
X135362384Y-102738976D01*
X135290955Y-102881833D01*
X135290955Y-103024690D01*
X136005241Y-103167547D01*
X134862384Y-102667547D02*
X134290955Y-102667547D01*
X134648098Y-102167547D02*
X134648098Y-103453261D01*
X134576669Y-103596118D01*
X134433812Y-103667547D01*
X134290955Y-103667547D01*
X133148098Y-102667547D02*
X133148098Y-103667547D01*
X133790955Y-102667547D02*
X133790955Y-103453261D01*
X133719526Y-103596118D01*
X133576669Y-103667547D01*
X133362384Y-103667547D01*
X133219526Y-103596118D01*
X133148098Y-103524690D01*
X132433812Y-102667547D02*
X132433812Y-104167547D01*
X132433812Y-102738976D02*
X132290955Y-102667547D01*
X132005241Y-102667547D01*
X131862384Y-102738976D01*
X131790955Y-102810404D01*
X131719526Y-102953261D01*
X131719526Y-103381833D01*
X131790955Y-103524690D01*
X131862384Y-103596118D01*
X132005241Y-103667547D01*
X132290955Y-103667547D01*
X132433812Y-103596118D01*
X130005241Y-102310404D02*
X129933812Y-102238976D01*
X129790955Y-102167547D01*
X129433812Y-102167547D01*
X129290955Y-102238976D01*
X129219526Y-102310404D01*
X129148098Y-102453261D01*
X129148098Y-102596118D01*
X129219526Y-102810404D01*
X130076669Y-103667547D01*
X129148098Y-103667547D01*
X128219526Y-102167547D02*
X128076669Y-102167547D01*
X127933812Y-102238976D01*
X127862384Y-102310404D01*
X127790955Y-102453261D01*
X127719526Y-102738976D01*
X127719526Y-103096118D01*
X127790955Y-103381833D01*
X127862384Y-103524690D01*
X127933812Y-103596118D01*
X128076669Y-103667547D01*
X128219526Y-103667547D01*
X128362384Y-103596118D01*
X128433812Y-103524690D01*
X128505241Y-103381833D01*
X128576669Y-103096118D01*
X128576669Y-102738976D01*
X128505241Y-102453261D01*
X128433812Y-102310404D01*
X128362384Y-102238976D01*
X128219526Y-102167547D01*
X127148098Y-102310404D02*
X127076669Y-102238976D01*
X126933812Y-102167547D01*
X126576669Y-102167547D01*
X126433812Y-102238976D01*
X126362384Y-102310404D01*
X126290955Y-102453261D01*
X126290955Y-102596118D01*
X126362384Y-102810404D01*
X127219526Y-103667547D01*
X126290955Y-103667547D01*
X124862384Y-103667547D02*
X125719526Y-103667547D01*
X125290955Y-103667547D02*
X125290955Y-102167547D01*
X125433812Y-102381833D01*
X125576669Y-102524690D01*
X125719526Y-102596118D01*
M02*
