G04 #@! TF.GenerationSoftware,KiCad,Pcbnew,(5.1.10-1-10_14)*
G04 #@! TF.CreationDate,2021-08-19T10:23:20-05:00*
G04 #@! TF.ProjectId,PCB-Keychains,5043422d-4b65-4796-9368-61696e732e6b,rev?*
G04 #@! TF.SameCoordinates,Original*
G04 #@! TF.FileFunction,Soldermask,Top*
G04 #@! TF.FilePolarity,Negative*
%FSLAX46Y46*%
G04 Gerber Fmt 4.6, Leading zero omitted, Abs format (unit mm)*
G04 Created by KiCad (PCBNEW (5.1.10-1-10_14)) date 2021-08-19 10:23:20*
%MOMM*%
%LPD*%
G01*
G04 APERTURE LIST*
%ADD10C,0.875000*%
%ADD11C,4.500000*%
%ADD12R,17.000000X3.000000*%
%ADD13R,3.000000X3.000000*%
G04 APERTURE END LIST*
D10*
X140713138Y-113516955D02*
X140713138Y-110850289D01*
X140713138Y-111612193D02*
X140879805Y-111231241D01*
X141046472Y-111040765D01*
X141379805Y-110850289D01*
X141713138Y-110850289D01*
X145379805Y-109326479D02*
X142379805Y-114469336D01*
X146546472Y-113516955D02*
X146546472Y-110850289D01*
X146546472Y-111231241D02*
X146713138Y-111040765D01*
X147046472Y-110850289D01*
X147546472Y-110850289D01*
X147879805Y-111040765D01*
X148046472Y-111421717D01*
X148046472Y-113516955D01*
X148046472Y-111421717D02*
X148213138Y-111040765D01*
X148546472Y-110850289D01*
X149046472Y-110850289D01*
X149379805Y-111040765D01*
X149546472Y-111421717D01*
X149546472Y-113516955D01*
X151213138Y-113516955D02*
X151213138Y-109516955D01*
X151546472Y-111993146D02*
X152546472Y-113516955D01*
X152546472Y-110850289D02*
X151213138Y-112374098D01*
D11*
X120896472Y-94107432D03*
D12*
X138707696Y-105727432D03*
D13*
X149899600Y-101917432D03*
X127039600Y-101917432D03*
X138469600Y-101917432D03*
X142279600Y-101917432D03*
X146089600Y-101917432D03*
X134659600Y-101917432D03*
X130849600Y-101917432D03*
X140136472Y-98107432D03*
X151566472Y-98107432D03*
X147756472Y-98107432D03*
X143946472Y-98107432D03*
X132516472Y-98107432D03*
X136326472Y-98107432D03*
X124896472Y-98107432D03*
X128706472Y-98107432D03*
M02*
