G04 #@! TF.GenerationSoftware,KiCad,Pcbnew,(5.1.10-1-10_14)*
G04 #@! TF.CreationDate,2021-08-18T21:18:23-05:00*
G04 #@! TF.ProjectId,PCB-Keychains,5043422d-4b65-4796-9368-61696e732e6b,rev?*
G04 #@! TF.SameCoordinates,Original*
G04 #@! TF.FileFunction,Copper,L1,Top*
G04 #@! TF.FilePolarity,Positive*
%FSLAX46Y46*%
G04 Gerber Fmt 4.6, Leading zero omitted, Abs format (unit mm)*
G04 Created by KiCad (PCBNEW (5.1.10-1-10_14)) date 2021-08-18 21:18:23*
%MOMM*%
%LPD*%
G01*
G04 APERTURE LIST*
G04 #@! TA.AperFunction,NonConductor*
%ADD10C,0.254000*%
G04 #@! TD*
G04 #@! TA.AperFunction,NonConductor*
%ADD11C,0.100000*%
G04 #@! TD*
G04 APERTURE END LIST*
D10*
X80835500Y-158115000D02*
X80837940Y-158139776D01*
X80845167Y-158163601D01*
X80856903Y-158185557D01*
X80872697Y-158204803D01*
X80891943Y-158220597D01*
X80913899Y-158232333D01*
X80937724Y-158239560D01*
X80962500Y-158242000D01*
X84645500Y-158242000D01*
X84645500Y-161798000D01*
X73469500Y-161798000D01*
X73469500Y-158242000D01*
X77152500Y-158242000D01*
X77177276Y-158239560D01*
X77201101Y-158232333D01*
X77223057Y-158220597D01*
X77242303Y-158204803D01*
X77258097Y-158185557D01*
X77269833Y-158163601D01*
X77277060Y-158139776D01*
X77279500Y-158115000D01*
X77279500Y-154432000D01*
X80835500Y-154432000D01*
X80835500Y-158115000D01*
G04 #@! TA.AperFunction,NonConductor*
D11*
G36*
X80835500Y-158115000D02*
G01*
X80837940Y-158139776D01*
X80845167Y-158163601D01*
X80856903Y-158185557D01*
X80872697Y-158204803D01*
X80891943Y-158220597D01*
X80913899Y-158232333D01*
X80937724Y-158239560D01*
X80962500Y-158242000D01*
X84645500Y-158242000D01*
X84645500Y-161798000D01*
X73469500Y-161798000D01*
X73469500Y-158242000D01*
X77152500Y-158242000D01*
X77177276Y-158239560D01*
X77201101Y-158232333D01*
X77223057Y-158220597D01*
X77242303Y-158204803D01*
X77258097Y-158185557D01*
X77269833Y-158163601D01*
X77277060Y-158139776D01*
X77279500Y-158115000D01*
X77279500Y-154432000D01*
X80835500Y-154432000D01*
X80835500Y-158115000D01*
G37*
G04 #@! TD.AperFunction*
D10*
X37973000Y-141795500D02*
X22987000Y-141795500D01*
X22987000Y-138239500D01*
X37973000Y-138239500D01*
X37973000Y-141795500D01*
G04 #@! TA.AperFunction,NonConductor*
D11*
G36*
X37973000Y-141795500D02*
G01*
X22987000Y-141795500D01*
X22987000Y-138239500D01*
X37973000Y-138239500D01*
X37973000Y-141795500D01*
G37*
G04 #@! TD.AperFunction*
D10*
X18923000Y-141795500D02*
X15367000Y-141795500D01*
X15367000Y-138239500D01*
X18923000Y-138239500D01*
X18923000Y-141795500D01*
G04 #@! TA.AperFunction,NonConductor*
D11*
G36*
X18923000Y-141795500D02*
G01*
X15367000Y-141795500D01*
X15367000Y-138239500D01*
X18923000Y-138239500D01*
X18923000Y-141795500D01*
G37*
G04 #@! TD.AperFunction*
D10*
X55118000Y-141795500D02*
X40132000Y-141795500D01*
X40132000Y-138239500D01*
X55118000Y-138239500D01*
X55118000Y-141795500D01*
G04 #@! TA.AperFunction,NonConductor*
D11*
G36*
X55118000Y-141795500D02*
G01*
X40132000Y-141795500D01*
X40132000Y-138239500D01*
X55118000Y-138239500D01*
X55118000Y-141795500D01*
G37*
G04 #@! TD.AperFunction*
D10*
X72263000Y-141795500D02*
X57277000Y-141795500D01*
X57277000Y-138239500D01*
X72263000Y-138239500D01*
X72263000Y-141795500D01*
G04 #@! TA.AperFunction,NonConductor*
D11*
G36*
X72263000Y-141795500D02*
G01*
X57277000Y-141795500D01*
X57277000Y-138239500D01*
X72263000Y-138239500D01*
X72263000Y-141795500D01*
G37*
G04 #@! TD.AperFunction*
D10*
X84645500Y-141795500D02*
X73469500Y-141795500D01*
X73469500Y-138239500D01*
X84645500Y-138239500D01*
X84645500Y-141795500D01*
G04 #@! TA.AperFunction,NonConductor*
D11*
G36*
X84645500Y-141795500D02*
G01*
X73469500Y-141795500D01*
X73469500Y-138239500D01*
X84645500Y-138239500D01*
X84645500Y-141795500D01*
G37*
G04 #@! TD.AperFunction*
D10*
X84645500Y-150368000D02*
X73469500Y-150368000D01*
X73469500Y-143002000D01*
X84645500Y-143002000D01*
X84645500Y-150368000D01*
G04 #@! TA.AperFunction,NonConductor*
D11*
G36*
X84645500Y-150368000D02*
G01*
X73469500Y-150368000D01*
X73469500Y-143002000D01*
X84645500Y-143002000D01*
X84645500Y-150368000D01*
G37*
G04 #@! TD.AperFunction*
D10*
X72273000Y-161873000D02*
X15377000Y-161873000D01*
X15377000Y-143039500D01*
X72273000Y-143039500D01*
X72273000Y-161873000D01*
G04 #@! TA.AperFunction,NonConductor*
D11*
G36*
X72273000Y-161873000D02*
G01*
X15377000Y-161873000D01*
X15377000Y-143039500D01*
X72273000Y-143039500D01*
X72273000Y-161873000D01*
G37*
G04 #@! TD.AperFunction*
M02*
