G04 #@! TF.GenerationSoftware,KiCad,Pcbnew,(5.1.10-1-10_14)*
G04 #@! TF.CreationDate,2021-08-18T21:18:23-05:00*
G04 #@! TF.ProjectId,PCB-Keychains,5043422d-4b65-4796-9368-61696e732e6b,rev?*
G04 #@! TF.SameCoordinates,Original*
G04 #@! TF.FileFunction,Legend,Bot*
G04 #@! TF.FilePolarity,Positive*
%FSLAX46Y46*%
G04 Gerber Fmt 4.6, Leading zero omitted, Abs format (unit mm)*
G04 Created by KiCad (PCBNEW (5.1.10-1-10_14)) date 2021-08-18 21:18:23*
%MOMM*%
%LPD*%
G01*
G04 APERTURE LIST*
%ADD10C,0.300000*%
G04 APERTURE END LIST*
D10*
X62378571Y-149878571D02*
X62378571Y-148378571D01*
X61878571Y-149450000D01*
X61378571Y-148378571D01*
X61378571Y-149878571D01*
X60664285Y-149878571D02*
X60664285Y-148878571D01*
X60664285Y-148378571D02*
X60735714Y-148450000D01*
X60664285Y-148521428D01*
X60592857Y-148450000D01*
X60664285Y-148378571D01*
X60664285Y-148521428D01*
X59950000Y-148878571D02*
X59950000Y-149878571D01*
X59950000Y-149021428D02*
X59878571Y-148950000D01*
X59735714Y-148878571D01*
X59521428Y-148878571D01*
X59378571Y-148950000D01*
X59307142Y-149092857D01*
X59307142Y-149878571D01*
X58592857Y-148878571D02*
X58592857Y-149878571D01*
X58592857Y-149021428D02*
X58521428Y-148950000D01*
X58378571Y-148878571D01*
X58164285Y-148878571D01*
X58021428Y-148950000D01*
X57950000Y-149092857D01*
X57950000Y-149878571D01*
X56664285Y-149807142D02*
X56807142Y-149878571D01*
X57092857Y-149878571D01*
X57235714Y-149807142D01*
X57307142Y-149664285D01*
X57307142Y-149092857D01*
X57235714Y-148950000D01*
X57092857Y-148878571D01*
X56807142Y-148878571D01*
X56664285Y-148950000D01*
X56592857Y-149092857D01*
X56592857Y-149235714D01*
X57307142Y-149378571D01*
X56021428Y-149807142D02*
X55878571Y-149878571D01*
X55592857Y-149878571D01*
X55450000Y-149807142D01*
X55378571Y-149664285D01*
X55378571Y-149592857D01*
X55450000Y-149450000D01*
X55592857Y-149378571D01*
X55807142Y-149378571D01*
X55950000Y-149307142D01*
X56021428Y-149164285D01*
X56021428Y-149092857D01*
X55950000Y-148950000D01*
X55807142Y-148878571D01*
X55592857Y-148878571D01*
X55450000Y-148950000D01*
X54521428Y-149878571D02*
X54664285Y-149807142D01*
X54735714Y-149735714D01*
X54807142Y-149592857D01*
X54807142Y-149164285D01*
X54735714Y-149021428D01*
X54664285Y-148950000D01*
X54521428Y-148878571D01*
X54307142Y-148878571D01*
X54164285Y-148950000D01*
X54092857Y-149021428D01*
X54021428Y-149164285D01*
X54021428Y-149592857D01*
X54092857Y-149735714D01*
X54164285Y-149807142D01*
X54307142Y-149878571D01*
X54521428Y-149878571D01*
X53592857Y-148878571D02*
X53021428Y-148878571D01*
X53378571Y-148378571D02*
X53378571Y-149664285D01*
X53307142Y-149807142D01*
X53164285Y-149878571D01*
X53021428Y-149878571D01*
X51878571Y-149878571D02*
X51878571Y-149092857D01*
X51950000Y-148950000D01*
X52092857Y-148878571D01*
X52378571Y-148878571D01*
X52521428Y-148950000D01*
X51878571Y-149807142D02*
X52021428Y-149878571D01*
X52378571Y-149878571D01*
X52521428Y-149807142D01*
X52592857Y-149664285D01*
X52592857Y-149521428D01*
X52521428Y-149378571D01*
X52378571Y-149307142D01*
X52021428Y-149307142D01*
X51878571Y-149235714D01*
X50021428Y-149878571D02*
X50021428Y-148378571D01*
X49521428Y-149450000D01*
X49021428Y-148378571D01*
X49021428Y-149878571D01*
X47735714Y-149807142D02*
X47878571Y-149878571D01*
X48164285Y-149878571D01*
X48307142Y-149807142D01*
X48378571Y-149664285D01*
X48378571Y-149092857D01*
X48307142Y-148950000D01*
X48164285Y-148878571D01*
X47878571Y-148878571D01*
X47735714Y-148950000D01*
X47664285Y-149092857D01*
X47664285Y-149235714D01*
X48378571Y-149378571D01*
X46450000Y-149807142D02*
X46592857Y-149878571D01*
X46878571Y-149878571D01*
X47021428Y-149807142D01*
X47092857Y-149664285D01*
X47092857Y-149092857D01*
X47021428Y-148950000D01*
X46878571Y-148878571D01*
X46592857Y-148878571D01*
X46450000Y-148950000D01*
X46378571Y-149092857D01*
X46378571Y-149235714D01*
X47092857Y-149378571D01*
X45950000Y-148878571D02*
X45378571Y-148878571D01*
X45735714Y-148378571D02*
X45735714Y-149664285D01*
X45664285Y-149807142D01*
X45521428Y-149878571D01*
X45378571Y-149878571D01*
X44235714Y-148878571D02*
X44235714Y-149878571D01*
X44878571Y-148878571D02*
X44878571Y-149664285D01*
X44807142Y-149807142D01*
X44664285Y-149878571D01*
X44450000Y-149878571D01*
X44307142Y-149807142D01*
X44235714Y-149735714D01*
X43521428Y-148878571D02*
X43521428Y-150378571D01*
X43521428Y-148950000D02*
X43378571Y-148878571D01*
X43092857Y-148878571D01*
X42950000Y-148950000D01*
X42878571Y-149021428D01*
X42807142Y-149164285D01*
X42807142Y-149592857D01*
X42878571Y-149735714D01*
X42950000Y-149807142D01*
X43092857Y-149878571D01*
X43378571Y-149878571D01*
X43521428Y-149807142D01*
X41092857Y-148521428D02*
X41021428Y-148450000D01*
X40878571Y-148378571D01*
X40521428Y-148378571D01*
X40378571Y-148450000D01*
X40307142Y-148521428D01*
X40235714Y-148664285D01*
X40235714Y-148807142D01*
X40307142Y-149021428D01*
X41164285Y-149878571D01*
X40235714Y-149878571D01*
X39307142Y-148378571D02*
X39164285Y-148378571D01*
X39021428Y-148450000D01*
X38950000Y-148521428D01*
X38878571Y-148664285D01*
X38807142Y-148950000D01*
X38807142Y-149307142D01*
X38878571Y-149592857D01*
X38950000Y-149735714D01*
X39021428Y-149807142D01*
X39164285Y-149878571D01*
X39307142Y-149878571D01*
X39450000Y-149807142D01*
X39521428Y-149735714D01*
X39592857Y-149592857D01*
X39664285Y-149307142D01*
X39664285Y-148950000D01*
X39592857Y-148664285D01*
X39521428Y-148521428D01*
X39450000Y-148450000D01*
X39307142Y-148378571D01*
X38235714Y-148521428D02*
X38164285Y-148450000D01*
X38021428Y-148378571D01*
X37664285Y-148378571D01*
X37521428Y-148450000D01*
X37450000Y-148521428D01*
X37378571Y-148664285D01*
X37378571Y-148807142D01*
X37450000Y-149021428D01*
X38307142Y-149878571D01*
X37378571Y-149878571D01*
X35950000Y-149878571D02*
X36807142Y-149878571D01*
X36378571Y-149878571D02*
X36378571Y-148378571D01*
X36521428Y-148592857D01*
X36664285Y-148735714D01*
X36807142Y-148807142D01*
M02*
