G04 #@! TF.GenerationSoftware,KiCad,Pcbnew,(5.1.10-1-10_14)*
G04 #@! TF.CreationDate,2021-08-18T21:17:47-05:00*
G04 #@! TF.ProjectId,PCB-Keychains,5043422d-4b65-4796-9368-61696e732e6b,rev?*
G04 #@! TF.SameCoordinates,Original*
G04 #@! TF.FileFunction,Soldermask,Bot*
G04 #@! TF.FilePolarity,Negative*
%FSLAX46Y46*%
G04 Gerber Fmt 4.6, Leading zero omitted, Abs format (unit mm)*
G04 Created by KiCad (PCBNEW (5.1.10-1-10_14)) date 2021-08-18 21:17:47*
%MOMM*%
%LPD*%
G01*
G04 APERTURE LIST*
%ADD10C,0.375000*%
%ADD11C,4.000000*%
G04 APERTURE END LIST*
D10*
X206021071Y-56746071D02*
X206163928Y-56674642D01*
X206235357Y-56603214D01*
X206306785Y-56460357D01*
X206306785Y-56031785D01*
X206235357Y-55888928D01*
X206163928Y-55817500D01*
X206021071Y-55746071D01*
X205806785Y-55746071D01*
X205663928Y-55817500D01*
X205592500Y-55888928D01*
X205521071Y-56031785D01*
X205521071Y-56460357D01*
X205592500Y-56603214D01*
X205663928Y-56674642D01*
X205806785Y-56746071D01*
X206021071Y-56746071D01*
X204878214Y-55746071D02*
X204878214Y-57246071D01*
X204878214Y-55817500D02*
X204735357Y-55746071D01*
X204449642Y-55746071D01*
X204306785Y-55817500D01*
X204235357Y-55888928D01*
X204163928Y-56031785D01*
X204163928Y-56460357D01*
X204235357Y-56603214D01*
X204306785Y-56674642D01*
X204449642Y-56746071D01*
X204735357Y-56746071D01*
X204878214Y-56674642D01*
X202949642Y-56674642D02*
X203092500Y-56746071D01*
X203378214Y-56746071D01*
X203521071Y-56674642D01*
X203592500Y-56531785D01*
X203592500Y-55960357D01*
X203521071Y-55817500D01*
X203378214Y-55746071D01*
X203092500Y-55746071D01*
X202949642Y-55817500D01*
X202878214Y-55960357D01*
X202878214Y-56103214D01*
X203592500Y-56246071D01*
D11*
X160705200Y-40773600D03*
M02*
