G04 #@! TF.GenerationSoftware,KiCad,Pcbnew,(5.1.10-1-10_14)*
G04 #@! TF.CreationDate,2021-08-18T21:17:47-05:00*
G04 #@! TF.ProjectId,PCB-Keychains,5043422d-4b65-4796-9368-61696e732e6b,rev?*
G04 #@! TF.SameCoordinates,Original*
G04 #@! TF.FileFunction,Soldermask,Top*
G04 #@! TF.FilePolarity,Negative*
%FSLAX46Y46*%
G04 Gerber Fmt 4.6, Leading zero omitted, Abs format (unit mm)*
G04 Created by KiCad (PCBNEW (5.1.10-1-10_14)) date 2021-08-18 21:17:47*
%MOMM*%
%LPD*%
G01*
G04 APERTURE LIST*
%ADD10C,4.000000*%
%ADD11R,3.000000X3.000000*%
%ADD12R,6.810000X3.000000*%
G04 APERTURE END LIST*
D10*
X160705200Y-40773600D03*
D11*
X172402500Y-56197500D03*
X202882500Y-56197500D03*
X191452500Y-56197500D03*
X206692500Y-56197500D03*
X195262500Y-56197500D03*
X176212500Y-56197500D03*
X168592500Y-56197500D03*
X199072500Y-56197500D03*
X180022500Y-56197500D03*
X164782500Y-56197500D03*
X172402500Y-52387500D03*
X202882500Y-52387500D03*
X187642500Y-52387500D03*
X191452500Y-52387500D03*
X206692500Y-52387500D03*
X195262500Y-52387500D03*
X176212500Y-52387500D03*
X168592500Y-52387500D03*
X199072500Y-52387500D03*
X180022500Y-52387500D03*
X183832500Y-52387500D03*
X164782500Y-52387500D03*
X172402500Y-48577500D03*
X202882500Y-48577500D03*
X187642500Y-48577500D03*
X191452500Y-48577500D03*
X206692500Y-48577500D03*
X195262500Y-48577500D03*
X176212500Y-48577500D03*
X168592500Y-48577500D03*
X199072500Y-48577500D03*
X180022500Y-48577500D03*
X183832500Y-48577500D03*
X164782500Y-48577500D03*
X172402500Y-44767500D03*
X202882500Y-44767500D03*
X187642500Y-44767500D03*
X191452500Y-44767500D03*
X206692500Y-44767500D03*
X195262500Y-44767500D03*
X176212500Y-44767500D03*
X168592500Y-44767500D03*
X199072500Y-44767500D03*
X180022500Y-44767500D03*
X183832500Y-44767500D03*
X164782500Y-44767500D03*
D12*
X185737500Y-56197500D03*
M02*
