G04 #@! TF.GenerationSoftware,KiCad,Pcbnew,(5.1.10-1-10_14)*
G04 #@! TF.CreationDate,2021-08-18T21:17:13-05:00*
G04 #@! TF.ProjectId,PCB-Keychains,5043422d-4b65-4796-9368-61696e732e6b,rev?*
G04 #@! TF.SameCoordinates,Original*
G04 #@! TF.FileFunction,Legend,Bot*
G04 #@! TF.FilePolarity,Positive*
%FSLAX46Y46*%
G04 Gerber Fmt 4.6, Leading zero omitted, Abs format (unit mm)*
G04 Created by KiCad (PCBNEW (5.1.10-1-10_14)) date 2021-08-18 21:17:13*
%MOMM*%
%LPD*%
G01*
G04 APERTURE LIST*
%ADD10C,0.300000*%
G04 APERTURE END LIST*
D10*
X81637321Y-79642321D02*
X81637321Y-78142321D01*
X81137321Y-79213750D01*
X80637321Y-78142321D01*
X80637321Y-79642321D01*
X79923035Y-79642321D02*
X79923035Y-78642321D01*
X79923035Y-78142321D02*
X79994464Y-78213750D01*
X79923035Y-78285178D01*
X79851607Y-78213750D01*
X79923035Y-78142321D01*
X79923035Y-78285178D01*
X79208750Y-78642321D02*
X79208750Y-79642321D01*
X79208750Y-78785178D02*
X79137321Y-78713750D01*
X78994464Y-78642321D01*
X78780178Y-78642321D01*
X78637321Y-78713750D01*
X78565892Y-78856607D01*
X78565892Y-79642321D01*
X77851607Y-78642321D02*
X77851607Y-79642321D01*
X77851607Y-78785178D02*
X77780178Y-78713750D01*
X77637321Y-78642321D01*
X77423035Y-78642321D01*
X77280178Y-78713750D01*
X77208750Y-78856607D01*
X77208750Y-79642321D01*
X75923035Y-79570892D02*
X76065892Y-79642321D01*
X76351607Y-79642321D01*
X76494464Y-79570892D01*
X76565892Y-79428035D01*
X76565892Y-78856607D01*
X76494464Y-78713750D01*
X76351607Y-78642321D01*
X76065892Y-78642321D01*
X75923035Y-78713750D01*
X75851607Y-78856607D01*
X75851607Y-78999464D01*
X76565892Y-79142321D01*
X75280178Y-79570892D02*
X75137321Y-79642321D01*
X74851607Y-79642321D01*
X74708750Y-79570892D01*
X74637321Y-79428035D01*
X74637321Y-79356607D01*
X74708750Y-79213750D01*
X74851607Y-79142321D01*
X75065892Y-79142321D01*
X75208750Y-79070892D01*
X75280178Y-78928035D01*
X75280178Y-78856607D01*
X75208750Y-78713750D01*
X75065892Y-78642321D01*
X74851607Y-78642321D01*
X74708750Y-78713750D01*
X73780178Y-79642321D02*
X73923035Y-79570892D01*
X73994464Y-79499464D01*
X74065892Y-79356607D01*
X74065892Y-78928035D01*
X73994464Y-78785178D01*
X73923035Y-78713750D01*
X73780178Y-78642321D01*
X73565892Y-78642321D01*
X73423035Y-78713750D01*
X73351607Y-78785178D01*
X73280178Y-78928035D01*
X73280178Y-79356607D01*
X73351607Y-79499464D01*
X73423035Y-79570892D01*
X73565892Y-79642321D01*
X73780178Y-79642321D01*
X72851607Y-78642321D02*
X72280178Y-78642321D01*
X72637321Y-78142321D02*
X72637321Y-79428035D01*
X72565892Y-79570892D01*
X72423035Y-79642321D01*
X72280178Y-79642321D01*
X71137321Y-79642321D02*
X71137321Y-78856607D01*
X71208750Y-78713750D01*
X71351607Y-78642321D01*
X71637321Y-78642321D01*
X71780178Y-78713750D01*
X71137321Y-79570892D02*
X71280178Y-79642321D01*
X71637321Y-79642321D01*
X71780178Y-79570892D01*
X71851607Y-79428035D01*
X71851607Y-79285178D01*
X71780178Y-79142321D01*
X71637321Y-79070892D01*
X71280178Y-79070892D01*
X71137321Y-78999464D01*
X69280178Y-79642321D02*
X69280178Y-78142321D01*
X68780178Y-79213750D01*
X68280178Y-78142321D01*
X68280178Y-79642321D01*
X66994464Y-79570892D02*
X67137321Y-79642321D01*
X67423035Y-79642321D01*
X67565892Y-79570892D01*
X67637321Y-79428035D01*
X67637321Y-78856607D01*
X67565892Y-78713750D01*
X67423035Y-78642321D01*
X67137321Y-78642321D01*
X66994464Y-78713750D01*
X66923035Y-78856607D01*
X66923035Y-78999464D01*
X67637321Y-79142321D01*
X65708750Y-79570892D02*
X65851607Y-79642321D01*
X66137321Y-79642321D01*
X66280178Y-79570892D01*
X66351607Y-79428035D01*
X66351607Y-78856607D01*
X66280178Y-78713750D01*
X66137321Y-78642321D01*
X65851607Y-78642321D01*
X65708750Y-78713750D01*
X65637321Y-78856607D01*
X65637321Y-78999464D01*
X66351607Y-79142321D01*
X65208750Y-78642321D02*
X64637321Y-78642321D01*
X64994464Y-78142321D02*
X64994464Y-79428035D01*
X64923035Y-79570892D01*
X64780178Y-79642321D01*
X64637321Y-79642321D01*
X63494464Y-78642321D02*
X63494464Y-79642321D01*
X64137321Y-78642321D02*
X64137321Y-79428035D01*
X64065892Y-79570892D01*
X63923035Y-79642321D01*
X63708750Y-79642321D01*
X63565892Y-79570892D01*
X63494464Y-79499464D01*
X62780178Y-78642321D02*
X62780178Y-80142321D01*
X62780178Y-78713750D02*
X62637321Y-78642321D01*
X62351607Y-78642321D01*
X62208750Y-78713750D01*
X62137321Y-78785178D01*
X62065892Y-78928035D01*
X62065892Y-79356607D01*
X62137321Y-79499464D01*
X62208750Y-79570892D01*
X62351607Y-79642321D01*
X62637321Y-79642321D01*
X62780178Y-79570892D01*
X60351607Y-78285178D02*
X60280178Y-78213750D01*
X60137321Y-78142321D01*
X59780178Y-78142321D01*
X59637321Y-78213750D01*
X59565892Y-78285178D01*
X59494464Y-78428035D01*
X59494464Y-78570892D01*
X59565892Y-78785178D01*
X60423035Y-79642321D01*
X59494464Y-79642321D01*
X58565892Y-78142321D02*
X58423035Y-78142321D01*
X58280178Y-78213750D01*
X58208750Y-78285178D01*
X58137321Y-78428035D01*
X58065892Y-78713750D01*
X58065892Y-79070892D01*
X58137321Y-79356607D01*
X58208750Y-79499464D01*
X58280178Y-79570892D01*
X58423035Y-79642321D01*
X58565892Y-79642321D01*
X58708750Y-79570892D01*
X58780178Y-79499464D01*
X58851607Y-79356607D01*
X58923035Y-79070892D01*
X58923035Y-78713750D01*
X58851607Y-78428035D01*
X58780178Y-78285178D01*
X58708750Y-78213750D01*
X58565892Y-78142321D01*
X57494464Y-78285178D02*
X57423035Y-78213750D01*
X57280178Y-78142321D01*
X56923035Y-78142321D01*
X56780178Y-78213750D01*
X56708750Y-78285178D01*
X56637321Y-78428035D01*
X56637321Y-78570892D01*
X56708750Y-78785178D01*
X57565892Y-79642321D01*
X56637321Y-79642321D01*
X55208750Y-79642321D02*
X56065892Y-79642321D01*
X55637321Y-79642321D02*
X55637321Y-78142321D01*
X55780178Y-78356607D01*
X55923035Y-78499464D01*
X56065892Y-78570892D01*
M02*
