G04 #@! TF.GenerationSoftware,KiCad,Pcbnew,(5.1.10-1-10_14)*
G04 #@! TF.CreationDate,2021-08-18T21:17:13-05:00*
G04 #@! TF.ProjectId,PCB-Keychains,5043422d-4b65-4796-9368-61696e732e6b,rev?*
G04 #@! TF.SameCoordinates,Original*
G04 #@! TF.FileFunction,Copper,L2,Bot*
G04 #@! TF.FilePolarity,Positive*
%FSLAX46Y46*%
G04 Gerber Fmt 4.6, Leading zero omitted, Abs format (unit mm)*
G04 Created by KiCad (PCBNEW (5.1.10-1-10_14)) date 2021-08-18 21:17:13*
%MOMM*%
%LPD*%
G01*
G04 APERTURE LIST*
G04 #@! TA.AperFunction,NonConductor*
%ADD10C,0.250000*%
G04 #@! TD*
G04 APERTURE END LIST*
D10*
X99987321Y-86242321D02*
X100130178Y-86170892D01*
X100201607Y-86099464D01*
X100273035Y-85956607D01*
X100273035Y-85528035D01*
X100201607Y-85385178D01*
X100130178Y-85313750D01*
X99987321Y-85242321D01*
X99773035Y-85242321D01*
X99630178Y-85313750D01*
X99558750Y-85385178D01*
X99487321Y-85528035D01*
X99487321Y-85956607D01*
X99558750Y-86099464D01*
X99630178Y-86170892D01*
X99773035Y-86242321D01*
X99987321Y-86242321D01*
X98844464Y-85242321D02*
X98844464Y-86742321D01*
X98844464Y-85313750D02*
X98701607Y-85242321D01*
X98415892Y-85242321D01*
X98273035Y-85313750D01*
X98201607Y-85385178D01*
X98130178Y-85528035D01*
X98130178Y-85956607D01*
X98201607Y-86099464D01*
X98273035Y-86170892D01*
X98415892Y-86242321D01*
X98701607Y-86242321D01*
X98844464Y-86170892D01*
X96915892Y-86170892D02*
X97058750Y-86242321D01*
X97344464Y-86242321D01*
X97487321Y-86170892D01*
X97558750Y-86028035D01*
X97558750Y-85456607D01*
X97487321Y-85313750D01*
X97344464Y-85242321D01*
X97058750Y-85242321D01*
X96915892Y-85313750D01*
X96844464Y-85456607D01*
X96844464Y-85599464D01*
X97558750Y-85742321D01*
M02*
