G04 #@! TF.GenerationSoftware,KiCad,Pcbnew,(5.1.10-1-10_14)*
G04 #@! TF.CreationDate,2021-08-20T11:59:54-05:00*
G04 #@! TF.ProjectId,PCB-Keychains,5043422d-4b65-4796-9368-61696e732e6b,rev?*
G04 #@! TF.SameCoordinates,Original*
G04 #@! TF.FileFunction,Copper,L2,Bot*
G04 #@! TF.FilePolarity,Positive*
%FSLAX46Y46*%
G04 Gerber Fmt 4.6, Leading zero omitted, Abs format (unit mm)*
G04 Created by KiCad (PCBNEW (5.1.10-1-10_14)) date 2021-08-20 11:59:54*
%MOMM*%
%LPD*%
G01*
G04 APERTURE LIST*
G04 #@! TA.AperFunction,NonConductor*
%ADD10C,0.250000*%
G04 #@! TD*
G04 #@! TA.AperFunction,ComponentPad*
%ADD11C,4.500000*%
G04 #@! TD*
G04 APERTURE END LIST*
D10*
X98869821Y-159814821D02*
X99012678Y-159743392D01*
X99084107Y-159671964D01*
X99155535Y-159529107D01*
X99155535Y-159100535D01*
X99084107Y-158957678D01*
X99012678Y-158886250D01*
X98869821Y-158814821D01*
X98655535Y-158814821D01*
X98512678Y-158886250D01*
X98441250Y-158957678D01*
X98369821Y-159100535D01*
X98369821Y-159529107D01*
X98441250Y-159671964D01*
X98512678Y-159743392D01*
X98655535Y-159814821D01*
X98869821Y-159814821D01*
X97726964Y-158814821D02*
X97726964Y-160314821D01*
X97726964Y-158886250D02*
X97584107Y-158814821D01*
X97298392Y-158814821D01*
X97155535Y-158886250D01*
X97084107Y-158957678D01*
X97012678Y-159100535D01*
X97012678Y-159529107D01*
X97084107Y-159671964D01*
X97155535Y-159743392D01*
X97298392Y-159814821D01*
X97584107Y-159814821D01*
X97726964Y-159743392D01*
X95798392Y-159743392D02*
X95941250Y-159814821D01*
X96226964Y-159814821D01*
X96369821Y-159743392D01*
X96441250Y-159600535D01*
X96441250Y-159029107D01*
X96369821Y-158886250D01*
X96226964Y-158814821D01*
X95941250Y-158814821D01*
X95798392Y-158886250D01*
X95726964Y-159029107D01*
X95726964Y-159171964D01*
X96441250Y-159314821D01*
D11*
X12691250Y-135636250D03*
M02*
