G04 #@! TF.GenerationSoftware,KiCad,Pcbnew,(5.1.10-1-10_14)*
G04 #@! TF.CreationDate,2021-08-20T11:59:55-05:00*
G04 #@! TF.ProjectId,PCB-Keychains,5043422d-4b65-4796-9368-61696e732e6b,rev?*
G04 #@! TF.SameCoordinates,Original*
G04 #@! TF.FileFunction,Soldermask,Top*
G04 #@! TF.FilePolarity,Negative*
%FSLAX46Y46*%
G04 Gerber Fmt 4.6, Leading zero omitted, Abs format (unit mm)*
G04 Created by KiCad (PCBNEW (5.1.10-1-10_14)) date 2021-08-20 11:59:55*
%MOMM*%
%LPD*%
G01*
G04 APERTURE LIST*
%ADD10C,4.500000*%
%ADD11R,3.000000X3.000000*%
%ADD12R,3.000000X6.810000*%
%ADD13R,4.905000X3.000000*%
%ADD14R,7.762500X3.000000*%
%ADD15R,5.857500X3.000000*%
%ADD16R,6.810000X3.000000*%
%ADD17R,25.860000X3.000000*%
%ADD18R,9.667500X3.000000*%
G04 APERTURE END LIST*
D10*
X12691250Y-135636250D03*
D11*
X87630000Y-140017500D03*
X95250000Y-140017500D03*
X91440000Y-140017500D03*
X99060000Y-140017500D03*
X95250000Y-152400000D03*
X95250000Y-144780000D03*
X95250000Y-156210000D03*
X99060000Y-144780000D03*
X87630000Y-152400000D03*
X91440000Y-156210000D03*
X87630000Y-148590000D03*
X91440000Y-152400000D03*
D12*
X99060000Y-158115000D03*
D11*
X87630000Y-144780000D03*
X95250000Y-148590000D03*
X87630000Y-156210000D03*
X95250000Y-160020000D03*
D12*
X99060000Y-150495000D03*
D11*
X91440000Y-144780000D03*
X91440000Y-148590000D03*
X55245000Y-144780000D03*
X24765000Y-144780000D03*
X36195000Y-144780000D03*
X28575000Y-144780000D03*
X32385000Y-144780000D03*
X43815000Y-144780000D03*
X40005000Y-144780000D03*
X51435000Y-144780000D03*
X62865000Y-144780000D03*
X34290000Y-148590000D03*
D13*
X18097500Y-148590000D03*
D11*
X22860000Y-148590000D03*
X58102500Y-152400000D03*
X49530000Y-148590000D03*
X59055000Y-144780000D03*
X27622500Y-152400000D03*
X26670000Y-148590000D03*
X50482500Y-152400000D03*
X64770000Y-148590000D03*
X38100000Y-148590000D03*
X57150000Y-148590000D03*
D13*
X69532500Y-148590000D03*
D11*
X53340000Y-148590000D03*
D14*
X68103750Y-152400000D03*
D11*
X35242500Y-152400000D03*
X41910000Y-148590000D03*
X30480000Y-148590000D03*
X45720000Y-148590000D03*
X60960000Y-148590000D03*
D15*
X18573750Y-152400000D03*
D11*
X23812500Y-152400000D03*
X61912500Y-152400000D03*
X31432500Y-152400000D03*
X46672500Y-152400000D03*
X47625000Y-144780000D03*
X54292500Y-152400000D03*
X42862500Y-152400000D03*
D16*
X68580000Y-144780000D03*
D11*
X79057500Y-148590000D03*
X75247500Y-160020000D03*
X48577500Y-156210000D03*
X17145000Y-144780000D03*
X60007500Y-156210000D03*
D13*
X18097500Y-160020000D03*
D11*
X79057500Y-140017500D03*
D17*
X43815000Y-160020000D03*
D13*
X60007500Y-160020000D03*
D11*
X41910000Y-140017500D03*
X44767500Y-156210000D03*
X82867500Y-148590000D03*
X79057500Y-160020000D03*
X29527500Y-156210000D03*
X40957500Y-156210000D03*
D18*
X67151250Y-156210000D03*
D11*
X17145000Y-140017500D03*
X52387500Y-156210000D03*
X33337500Y-156210000D03*
X56197500Y-156210000D03*
X82867500Y-160020000D03*
X25717500Y-156210000D03*
X75247500Y-144780000D03*
D13*
X27622500Y-160020000D03*
D11*
X82867500Y-144780000D03*
X75247500Y-140017500D03*
X79057500Y-144780000D03*
X37147500Y-156210000D03*
X79057500Y-156210000D03*
D14*
X19526250Y-156210000D03*
D11*
X39052500Y-152400000D03*
X82867500Y-140017500D03*
D13*
X69532500Y-160020000D03*
D11*
X24765000Y-140017500D03*
X75247500Y-148590000D03*
X59055000Y-140017500D03*
X66675000Y-140017500D03*
X62865000Y-140017500D03*
X45720000Y-140017500D03*
X49530000Y-140017500D03*
X53340000Y-140017500D03*
X70485000Y-140017500D03*
X20955000Y-144780000D03*
X36195000Y-140017500D03*
X32385000Y-140017500D03*
X28575000Y-140017500D03*
D16*
X89535000Y-160020000D03*
D11*
X22860000Y-160020000D03*
X64770000Y-160020000D03*
M02*
