G04 #@! TF.GenerationSoftware,KiCad,Pcbnew,(5.1.10-1-10_14)*
G04 #@! TF.CreationDate,2021-08-18T21:16:35-05:00*
G04 #@! TF.ProjectId,PCB-Keychains,5043422d-4b65-4796-9368-61696e732e6b,rev?*
G04 #@! TF.SameCoordinates,Original*
G04 #@! TF.FileFunction,Soldermask,Bot*
G04 #@! TF.FilePolarity,Negative*
%FSLAX46Y46*%
G04 Gerber Fmt 4.6, Leading zero omitted, Abs format (unit mm)*
G04 Created by KiCad (PCBNEW (5.1.10-1-10_14)) date 2021-08-18 21:16:35*
%MOMM*%
%LPD*%
G01*
G04 APERTURE LIST*
%ADD10C,0.375000*%
%ADD11C,4.000000*%
G04 APERTURE END LIST*
D10*
X211428571Y-33178571D02*
X211571428Y-33107142D01*
X211642857Y-33035714D01*
X211714285Y-32892857D01*
X211714285Y-32464285D01*
X211642857Y-32321428D01*
X211571428Y-32250000D01*
X211428571Y-32178571D01*
X211214285Y-32178571D01*
X211071428Y-32250000D01*
X211000000Y-32321428D01*
X210928571Y-32464285D01*
X210928571Y-32892857D01*
X211000000Y-33035714D01*
X211071428Y-33107142D01*
X211214285Y-33178571D01*
X211428571Y-33178571D01*
X210285714Y-32178571D02*
X210285714Y-33678571D01*
X210285714Y-32250000D02*
X210142857Y-32178571D01*
X209857142Y-32178571D01*
X209714285Y-32250000D01*
X209642857Y-32321428D01*
X209571428Y-32464285D01*
X209571428Y-32892857D01*
X209642857Y-33035714D01*
X209714285Y-33107142D01*
X209857142Y-33178571D01*
X210142857Y-33178571D01*
X210285714Y-33107142D01*
X208357142Y-33107142D02*
X208500000Y-33178571D01*
X208785714Y-33178571D01*
X208928571Y-33107142D01*
X209000000Y-32964285D01*
X209000000Y-32392857D01*
X208928571Y-32250000D01*
X208785714Y-32178571D01*
X208500000Y-32178571D01*
X208357142Y-32250000D01*
X208285714Y-32392857D01*
X208285714Y-32535714D01*
X209000000Y-32678571D01*
D11*
X150983950Y-12864850D03*
M02*
