G04 #@! TF.GenerationSoftware,KiCad,Pcbnew,(5.1.10-1-10_14)*
G04 #@! TF.CreationDate,2021-08-18T21:16:35-05:00*
G04 #@! TF.ProjectId,PCB-Keychains,5043422d-4b65-4796-9368-61696e732e6b,rev?*
G04 #@! TF.SameCoordinates,Original*
G04 #@! TF.FileFunction,Copper,L1,Top*
G04 #@! TF.FilePolarity,Positive*
%FSLAX46Y46*%
G04 Gerber Fmt 4.6, Leading zero omitted, Abs format (unit mm)*
G04 Created by KiCad (PCBNEW (5.1.10-1-10_14)) date 2021-08-18 21:16:35*
%MOMM*%
%LPD*%
G01*
G04 APERTURE LIST*
G04 #@! TA.AperFunction,NonConductor*
%ADD10C,0.254000*%
G04 #@! TD*
G04 #@! TA.AperFunction,NonConductor*
%ADD11C,0.100000*%
G04 #@! TD*
G04 APERTURE END LIST*
D10*
X214185500Y-34163000D02*
X203009500Y-34163000D01*
X203009500Y-30480000D01*
X203007060Y-30455224D01*
X202999833Y-30431399D01*
X202988097Y-30409443D01*
X202972303Y-30390197D01*
X202953057Y-30374403D01*
X202931101Y-30362667D01*
X202907276Y-30355440D01*
X202882500Y-30353000D01*
X200977500Y-30353000D01*
X200952724Y-30355440D01*
X200928899Y-30362667D01*
X200906943Y-30374403D01*
X200887697Y-30390197D01*
X200871903Y-30409443D01*
X200860167Y-30431399D01*
X200852940Y-30455224D01*
X200850500Y-30480000D01*
X200850500Y-34163000D01*
X153479500Y-34163000D01*
X153479500Y-15367000D01*
X214185500Y-15367000D01*
X214185500Y-34163000D01*
G04 #@! TA.AperFunction,NonConductor*
D11*
G36*
X214185500Y-34163000D02*
G01*
X203009500Y-34163000D01*
X203009500Y-30480000D01*
X203007060Y-30455224D01*
X202999833Y-30431399D01*
X202988097Y-30409443D01*
X202972303Y-30390197D01*
X202953057Y-30374403D01*
X202931101Y-30362667D01*
X202907276Y-30355440D01*
X202882500Y-30353000D01*
X200977500Y-30353000D01*
X200952724Y-30355440D01*
X200928899Y-30362667D01*
X200906943Y-30374403D01*
X200887697Y-30390197D01*
X200871903Y-30409443D01*
X200860167Y-30431399D01*
X200852940Y-30455224D01*
X200850500Y-30480000D01*
X200850500Y-34163000D01*
X153479500Y-34163000D01*
X153479500Y-15367000D01*
X214185500Y-15367000D01*
X214185500Y-34163000D01*
G37*
G04 #@! TD.AperFunction*
M02*
