G04 #@! TF.GenerationSoftware,KiCad,Pcbnew,(5.1.10-1-10_14)*
G04 #@! TF.CreationDate,2021-08-18T21:15:36-05:00*
G04 #@! TF.ProjectId,PCB-Keychains,5043422d-4b65-4796-9368-61696e732e6b,rev?*
G04 #@! TF.SameCoordinates,Original*
G04 #@! TF.FileFunction,Soldermask,Bot*
G04 #@! TF.FilePolarity,Negative*
%FSLAX46Y46*%
G04 Gerber Fmt 4.6, Leading zero omitted, Abs format (unit mm)*
G04 Created by KiCad (PCBNEW (5.1.10-1-10_14)) date 2021-08-18 21:15:36*
%MOMM*%
%LPD*%
G01*
G04 APERTURE LIST*
%ADD10C,0.375000*%
%ADD11C,4.000000*%
G04 APERTURE END LIST*
D10*
X92287321Y-61192321D02*
X92430178Y-61120892D01*
X92501607Y-61049464D01*
X92573035Y-60906607D01*
X92573035Y-60478035D01*
X92501607Y-60335178D01*
X92430178Y-60263750D01*
X92287321Y-60192321D01*
X92073035Y-60192321D01*
X91930178Y-60263750D01*
X91858750Y-60335178D01*
X91787321Y-60478035D01*
X91787321Y-60906607D01*
X91858750Y-61049464D01*
X91930178Y-61120892D01*
X92073035Y-61192321D01*
X92287321Y-61192321D01*
X91144464Y-60192321D02*
X91144464Y-61692321D01*
X91144464Y-60263750D02*
X91001607Y-60192321D01*
X90715892Y-60192321D01*
X90573035Y-60263750D01*
X90501607Y-60335178D01*
X90430178Y-60478035D01*
X90430178Y-60906607D01*
X90501607Y-61049464D01*
X90573035Y-61120892D01*
X90715892Y-61192321D01*
X91001607Y-61192321D01*
X91144464Y-61120892D01*
X89215892Y-61120892D02*
X89358750Y-61192321D01*
X89644464Y-61192321D01*
X89787321Y-61120892D01*
X89858750Y-60978035D01*
X89858750Y-60406607D01*
X89787321Y-60263750D01*
X89644464Y-60192321D01*
X89358750Y-60192321D01*
X89215892Y-60263750D01*
X89144464Y-60406607D01*
X89144464Y-60549464D01*
X89858750Y-60692321D01*
D11*
X34358750Y-40763750D03*
M02*
