G04 #@! TF.GenerationSoftware,KiCad,Pcbnew,(5.1.10-1-10_14)*
G04 #@! TF.CreationDate,2021-08-18T21:56:21-05:00*
G04 #@! TF.ProjectId,PCB-Keychains,5043422d-4b65-4796-9368-61696e732e6b,rev?*
G04 #@! TF.SameCoordinates,Original*
G04 #@! TF.FileFunction,Copper,L1,Top*
G04 #@! TF.FilePolarity,Positive*
%FSLAX46Y46*%
G04 Gerber Fmt 4.6, Leading zero omitted, Abs format (unit mm)*
G04 Created by KiCad (PCBNEW (5.1.10-1-10_14)) date 2021-08-18 21:56:21*
%MOMM*%
%LPD*%
G01*
G04 APERTURE LIST*
G04 #@! TA.AperFunction,NonConductor*
%ADD10C,0.254000*%
G04 #@! TD*
G04 #@! TA.AperFunction,NonConductor*
%ADD11C,0.100000*%
G04 #@! TD*
G04 APERTURE END LIST*
D10*
X268473000Y-113500000D02*
X268475440Y-113524776D01*
X268482667Y-113548601D01*
X268494403Y-113570557D01*
X268510197Y-113589803D01*
X268529443Y-113605597D01*
X268551399Y-113617333D01*
X268575224Y-113624560D01*
X268600000Y-113627000D01*
X272273000Y-113627000D01*
X272273000Y-114300000D01*
X272275440Y-114324776D01*
X272282667Y-114348601D01*
X272294403Y-114370557D01*
X272310197Y-114389803D01*
X272329443Y-114405597D01*
X272351399Y-114417333D01*
X272375224Y-114424560D01*
X272400000Y-114427000D01*
X279973000Y-114427000D01*
X279973000Y-125473000D01*
X267900000Y-125473000D01*
X267875224Y-125475440D01*
X267851399Y-125482667D01*
X267829443Y-125494403D01*
X267810197Y-125510197D01*
X267790743Y-125535255D01*
X266222546Y-128181587D01*
X258984460Y-129073954D01*
X258960168Y-129079408D01*
X258937387Y-129089507D01*
X256046959Y-130727416D01*
X253572710Y-126445062D01*
X257164907Y-124309161D01*
X257184956Y-124294401D01*
X257201740Y-124276013D01*
X257214614Y-124254704D01*
X257223084Y-124231293D01*
X257227000Y-124200000D01*
X257227000Y-113927000D01*
X261000000Y-113927000D01*
X261024776Y-113924560D01*
X261048601Y-113917333D01*
X261070557Y-113905597D01*
X261089803Y-113889803D01*
X261105597Y-113870557D01*
X261117333Y-113848601D01*
X261124560Y-113824776D01*
X261127000Y-113800000D01*
X261127000Y-113627000D01*
X264900000Y-113627000D01*
X264924776Y-113624560D01*
X264948601Y-113617333D01*
X264970557Y-113605597D01*
X264989803Y-113589803D01*
X265005597Y-113570557D01*
X265017333Y-113548601D01*
X265024560Y-113524776D01*
X265027000Y-113500000D01*
X265027000Y-113227000D01*
X268473000Y-113227000D01*
X268473000Y-113500000D01*
G04 #@! TA.AperFunction,NonConductor*
D11*
G36*
X268473000Y-113500000D02*
G01*
X268475440Y-113524776D01*
X268482667Y-113548601D01*
X268494403Y-113570557D01*
X268510197Y-113589803D01*
X268529443Y-113605597D01*
X268551399Y-113617333D01*
X268575224Y-113624560D01*
X268600000Y-113627000D01*
X272273000Y-113627000D01*
X272273000Y-114300000D01*
X272275440Y-114324776D01*
X272282667Y-114348601D01*
X272294403Y-114370557D01*
X272310197Y-114389803D01*
X272329443Y-114405597D01*
X272351399Y-114417333D01*
X272375224Y-114424560D01*
X272400000Y-114427000D01*
X279973000Y-114427000D01*
X279973000Y-125473000D01*
X267900000Y-125473000D01*
X267875224Y-125475440D01*
X267851399Y-125482667D01*
X267829443Y-125494403D01*
X267810197Y-125510197D01*
X267790743Y-125535255D01*
X266222546Y-128181587D01*
X258984460Y-129073954D01*
X258960168Y-129079408D01*
X258937387Y-129089507D01*
X256046959Y-130727416D01*
X253572710Y-126445062D01*
X257164907Y-124309161D01*
X257184956Y-124294401D01*
X257201740Y-124276013D01*
X257214614Y-124254704D01*
X257223084Y-124231293D01*
X257227000Y-124200000D01*
X257227000Y-113927000D01*
X261000000Y-113927000D01*
X261024776Y-113924560D01*
X261048601Y-113917333D01*
X261070557Y-113905597D01*
X261089803Y-113889803D01*
X261105597Y-113870557D01*
X261117333Y-113848601D01*
X261124560Y-113824776D01*
X261127000Y-113800000D01*
X261127000Y-113627000D01*
X264900000Y-113627000D01*
X264924776Y-113624560D01*
X264948601Y-113617333D01*
X264970557Y-113605597D01*
X264989803Y-113589803D01*
X265005597Y-113570557D01*
X265017333Y-113548601D01*
X265024560Y-113524776D01*
X265027000Y-113500000D01*
X265027000Y-113227000D01*
X268473000Y-113227000D01*
X268473000Y-113500000D01*
G37*
G04 #@! TD.AperFunction*
D10*
X236873000Y-113500000D02*
X236875440Y-113524776D01*
X236882667Y-113548601D01*
X236894403Y-113570557D01*
X236910197Y-113589803D01*
X236929443Y-113605597D01*
X236951399Y-113617333D01*
X236975224Y-113624560D01*
X237000000Y-113627000D01*
X240773000Y-113627000D01*
X240773000Y-113800000D01*
X240775440Y-113824776D01*
X240782667Y-113848601D01*
X240794403Y-113870557D01*
X240810197Y-113889803D01*
X240829443Y-113905597D01*
X240851399Y-113917333D01*
X240875224Y-113924560D01*
X240900000Y-113927000D01*
X244673000Y-113927000D01*
X244673000Y-124200000D01*
X244675440Y-124224776D01*
X244682667Y-124248601D01*
X244694403Y-124270557D01*
X244710197Y-124289803D01*
X244735093Y-124309161D01*
X248327290Y-126445062D01*
X245853041Y-130727416D01*
X242962613Y-129089507D01*
X242939853Y-129079415D01*
X242915540Y-129073954D01*
X235677454Y-128181587D01*
X234109257Y-125535255D01*
X234094527Y-125515184D01*
X234076164Y-125498373D01*
X234054874Y-125485467D01*
X234031475Y-125476962D01*
X234000000Y-125473000D01*
X221927000Y-125473000D01*
X221927000Y-114427000D01*
X229500000Y-114427000D01*
X229524776Y-114424560D01*
X229548601Y-114417333D01*
X229570557Y-114405597D01*
X229589803Y-114389803D01*
X229605597Y-114370557D01*
X229617333Y-114348601D01*
X229624560Y-114324776D01*
X229627000Y-114300000D01*
X229627000Y-113627000D01*
X233300000Y-113627000D01*
X233324776Y-113624560D01*
X233348601Y-113617333D01*
X233370557Y-113605597D01*
X233389803Y-113589803D01*
X233405597Y-113570557D01*
X233417333Y-113548601D01*
X233424560Y-113524776D01*
X233427000Y-113500000D01*
X233427000Y-113227000D01*
X236873000Y-113227000D01*
X236873000Y-113500000D01*
G04 #@! TA.AperFunction,NonConductor*
D11*
G36*
X236873000Y-113500000D02*
G01*
X236875440Y-113524776D01*
X236882667Y-113548601D01*
X236894403Y-113570557D01*
X236910197Y-113589803D01*
X236929443Y-113605597D01*
X236951399Y-113617333D01*
X236975224Y-113624560D01*
X237000000Y-113627000D01*
X240773000Y-113627000D01*
X240773000Y-113800000D01*
X240775440Y-113824776D01*
X240782667Y-113848601D01*
X240794403Y-113870557D01*
X240810197Y-113889803D01*
X240829443Y-113905597D01*
X240851399Y-113917333D01*
X240875224Y-113924560D01*
X240900000Y-113927000D01*
X244673000Y-113927000D01*
X244673000Y-124200000D01*
X244675440Y-124224776D01*
X244682667Y-124248601D01*
X244694403Y-124270557D01*
X244710197Y-124289803D01*
X244735093Y-124309161D01*
X248327290Y-126445062D01*
X245853041Y-130727416D01*
X242962613Y-129089507D01*
X242939853Y-129079415D01*
X242915540Y-129073954D01*
X235677454Y-128181587D01*
X234109257Y-125535255D01*
X234094527Y-125515184D01*
X234076164Y-125498373D01*
X234054874Y-125485467D01*
X234031475Y-125476962D01*
X234000000Y-125473000D01*
X221927000Y-125473000D01*
X221927000Y-114427000D01*
X229500000Y-114427000D01*
X229524776Y-114424560D01*
X229548601Y-114417333D01*
X229570557Y-114405597D01*
X229589803Y-114389803D01*
X229605597Y-114370557D01*
X229617333Y-114348601D01*
X229624560Y-114324776D01*
X229627000Y-114300000D01*
X229627000Y-113627000D01*
X233300000Y-113627000D01*
X233324776Y-113624560D01*
X233348601Y-113617333D01*
X233370557Y-113605597D01*
X233389803Y-113589803D01*
X233405597Y-113570557D01*
X233417333Y-113548601D01*
X233424560Y-113524776D01*
X233427000Y-113500000D01*
X233427000Y-113227000D01*
X236873000Y-113227000D01*
X236873000Y-113500000D01*
G37*
G04 #@! TD.AperFunction*
M02*
