G04 #@! TF.GenerationSoftware,KiCad,Pcbnew,(5.1.10-1-10_14)*
G04 #@! TF.CreationDate,2021-08-18T21:56:21-05:00*
G04 #@! TF.ProjectId,PCB-Keychains,5043422d-4b65-4796-9368-61696e732e6b,rev?*
G04 #@! TF.SameCoordinates,Original*
G04 #@! TF.FileFunction,Copper,L2,Bot*
G04 #@! TF.FilePolarity,Positive*
%FSLAX46Y46*%
G04 Gerber Fmt 4.6, Leading zero omitted, Abs format (unit mm)*
G04 Created by KiCad (PCBNEW (5.1.10-1-10_14)) date 2021-08-18 21:56:21*
%MOMM*%
%LPD*%
G01*
G04 APERTURE LIST*
G04 #@! TA.AperFunction,NonConductor*
%ADD10C,0.300000*%
G04 #@! TD*
G04 APERTURE END LIST*
D10*
X277828571Y-123878571D02*
X277971428Y-123807142D01*
X278042857Y-123735714D01*
X278114285Y-123592857D01*
X278114285Y-123164285D01*
X278042857Y-123021428D01*
X277971428Y-122950000D01*
X277828571Y-122878571D01*
X277614285Y-122878571D01*
X277471428Y-122950000D01*
X277400000Y-123021428D01*
X277328571Y-123164285D01*
X277328571Y-123592857D01*
X277400000Y-123735714D01*
X277471428Y-123807142D01*
X277614285Y-123878571D01*
X277828571Y-123878571D01*
X276685714Y-122878571D02*
X276685714Y-124378571D01*
X276685714Y-122950000D02*
X276542857Y-122878571D01*
X276257142Y-122878571D01*
X276114285Y-122950000D01*
X276042857Y-123021428D01*
X275971428Y-123164285D01*
X275971428Y-123592857D01*
X276042857Y-123735714D01*
X276114285Y-123807142D01*
X276257142Y-123878571D01*
X276542857Y-123878571D01*
X276685714Y-123807142D01*
X274757142Y-123807142D02*
X274900000Y-123878571D01*
X275185714Y-123878571D01*
X275328571Y-123807142D01*
X275400000Y-123664285D01*
X275400000Y-123092857D01*
X275328571Y-122950000D01*
X275185714Y-122878571D01*
X274900000Y-122878571D01*
X274757142Y-122950000D01*
X274685714Y-123092857D01*
X274685714Y-123235714D01*
X275400000Y-123378571D01*
M02*
