G04 #@! TF.GenerationSoftware,KiCad,Pcbnew,(5.1.10-1-10_14)*
G04 #@! TF.CreationDate,2021-08-18T21:56:21-05:00*
G04 #@! TF.ProjectId,PCB-Keychains,5043422d-4b65-4796-9368-61696e732e6b,rev?*
G04 #@! TF.SameCoordinates,Original*
G04 #@! TF.FileFunction,Profile,NP*
%FSLAX46Y46*%
G04 Gerber Fmt 4.6, Leading zero omitted, Abs format (unit mm)*
G04 Created by KiCad (PCBNEW (5.1.10-1-10_14)) date 2021-08-18 21:56:21*
%MOMM*%
%LPD*%
G01*
G04 APERTURE LIST*
G04 #@! TA.AperFunction,Profile*
%ADD10C,0.150000*%
G04 #@! TD*
G04 APERTURE END LIST*
D10*
X281100000Y-112800000D02*
G75*
G03*
X280100000Y-111800000I-1000000J0D01*
G01*
X245400000Y-132200000D02*
X256400000Y-132200000D01*
X252200000Y-125400000D02*
X249600000Y-125400000D01*
X220700000Y-115800000D02*
G75*
G02*
X224700000Y-111800000I0J4000000D01*
G01*
X255700000Y-112800000D02*
X255700000Y-123100000D01*
X255700000Y-123100000D02*
X252200000Y-125400000D01*
X256400000Y-132200000D02*
X259700000Y-130500000D01*
X268400000Y-126700000D02*
X280100000Y-126700000D01*
X281100000Y-125700000D02*
X281100000Y-112800000D01*
X280100000Y-111800000D02*
X256700000Y-111800000D01*
X280100000Y-126700000D02*
G75*
G03*
X281100000Y-125700000I0J1000000D01*
G01*
X256700000Y-111800000D02*
G75*
G03*
X255700000Y-112800000I0J-1000000D01*
G01*
X221700000Y-126700000D02*
G75*
G02*
X220700000Y-125700000I0J1000000D01*
G01*
X245100000Y-111800000D02*
G75*
G02*
X246100000Y-112800000I0J-1000000D01*
G01*
X266600000Y-129800000D02*
X268400000Y-126700000D01*
X259700000Y-130500000D02*
X266600000Y-129800000D01*
X245400000Y-132200000D02*
X242100000Y-130500000D01*
X233400000Y-126700000D02*
X221700000Y-126700000D01*
X220700000Y-125700000D02*
X220700000Y-115800000D01*
X235200000Y-129800000D02*
X233400000Y-126700000D01*
X242100000Y-130500000D02*
X235200000Y-129800000D01*
X224700000Y-111800000D02*
X245100000Y-111800000D01*
X246100000Y-112800000D02*
X246100000Y-123100000D01*
X246100000Y-123100000D02*
X249600000Y-125400000D01*
M02*
